<?xml version="1.0" standalone="no"?>
<!DOCTYPE svg PUBLIC "-//W3C//DTD SVG 20010904//EN"
 "http://www.w3.org/TR/2001/REC-SVG-20010904/DTD/svg10.dtd">
<svg version="1.0" xmlns="http://www.w3.org/2000/svg"
 width="512.000000pt" height="512.000000pt" viewBox="0 0 512.000000 512.000000"
 preserveAspectRatio="xMidYMid meet">
<metadata>
Created by potrace 1.11, written by Peter Selinger 2001-2013
</metadata>
<g transform="translate(0.000000,512.000000) scale(0.100000,-0.100000)"
fill="#000000" stroke="none">
<path d="M1540 4091 c-553 -102 -1013 -191 -1022 -196 -21 -12 -518 -1071
-518 -1102 0 -35 34 -63 78 -63 20 0 442 41 937 90 734 74 904 94 923 108 16
12 114 222 318 681 162 365 294 664 292 665 -2 2 -455 -81 -1008 -183z"/>
<path d="M2570 4274 c0 -2 132 -302 294 -666 205 -461 302 -668 318 -680 18
-13 120 -26 483 -63 253 -25 656 -66 897 -90 240 -25 455 -45 477 -45 47 0 81
26 81 62 0 12 -113 264 -251 559 -177 377 -258 540 -273 548 -11 6 -451 89
-976 186 -525 96 -976 179 -1002 184 -27 4 -48 7 -48 5z"/>
<path d="M2432 3543 c-11 -21 -88 -206 -172 -411 -110 -267 -159 -376 -174
-384 -16 -9 -1479 -146 -1573 -148 -12 0 -34 -10 -49 -23 l-26 -23 16 -630
c15 -576 18 -631 35 -654 17 -23 80 -38 952 -221 514 -109 960 -200 992 -204
l57 -7 0 1340 c0 737 -3 1354 -6 1371 -9 42 -29 39 -52 -6z m-224 -2060 c2
-161 -1 -233 -8 -233 -14 0 -628 98 -657 105 -23 5 -23 7 -23 185 l0 180 343
-2 342 -3 3 -232z"/>
<path d="M2636 3549 c-3 -17 -6 -634 -6 -1371 l0 -1340 58 7 c31 3 477 95 991
203 876 185 935 199 952 222 17 23 20 77 35 654 l16 630 -26 23 c-15 13 -32
23 -39 23 -84 1 -1568 140 -1583 148 -15 8 -65 118 -174 384 -172 419 -185
448 -204 448 -7 0 -16 -14 -20 -31z m1158 -1225 c17 -7 236 -315 236 -332 0
-26 -33 -42 -86 -42 l-54 0 0 -278 c0 -261 -1 -280 -19 -296 -21 -19 -185 -44
-214 -33 -15 6 -17 34 -17 302 l0 295 -61 0 c-68 0 -99 12 -99 39 0 17 177
257 238 324 26 27 46 33 76 21z"/>
</g>
</svg>
