<svg xmlns="http://www.w3.org/2000/svg" width="167" height="41" viewBox="0 0 167 41">
    <path fill="#1B2979" fill-rule="nonzero" d="M66.86 12.11V31.92h-3.974V19.404L57.495 31.92h-2.867L49.265 19.46v12.458h-4.001V12.11h4.455l6.357 14.671 6.356-14.671h4.427zm14.8 15.354c.833-.833 1.25-1.968 1.25-3.406 0-1.438-.417-2.568-1.25-3.391-.832-.823-1.806-1.235-2.922-1.235s-2.086.407-2.909 1.22c-.823.814-1.234 1.94-1.234 3.378 0 1.438.416 2.573 1.248 3.405.833.833 1.802 1.249 2.909 1.249 1.107 0 2.076-.407 2.909-1.22zm-9.024 2.412c-1.4-1.533-2.1-3.481-2.1-5.846s.7-4.3 2.1-5.804c1.4-1.504 3.179-2.256 5.336-2.256 2.156 0 3.802.89 4.937 2.668v-2.44h3.973v15.72H82.91V29.28c-1.191 1.91-2.847 2.866-4.966 2.866s-3.888-.757-5.307-2.27zm23.032-13.679v2.781c1.059-2.005 2.591-3.008 4.597-3.008v4.087h-.993c-1.192 0-2.09.298-2.696.894-.606.596-.908 1.622-.908 3.079v7.889h-4.002V16.197h4.002zM107.63 31.92h-4.001v-21h4.001v12.004l5.307-6.726h5.42l-6.981 7.946 6.981 7.776h-5.335l-5.392-6.555v6.555zm20.193.227c-2.289 0-4.152-.743-5.59-2.228-1.438-1.485-2.157-3.448-2.157-5.888s.724-4.394 2.171-5.86c1.447-1.467 3.32-2.2 5.619-2.2s4.186.714 5.661 2.143c1.476 1.428 2.214 3.334 2.214 5.718 0 .549-.038 1.06-.114 1.533h-11.464c.094 1.021.472 1.844 1.135 2.468.662.625 1.504.937 2.525.937 1.381 0 2.403-.568 3.065-1.703h4.314c-.454 1.495-1.334 2.715-2.64 3.661-1.305.946-2.885 1.419-4.739 1.419zm3.775-9.365c-.057-1.04-.44-1.873-1.15-2.497-.71-.625-1.565-.937-2.568-.937-1.003 0-1.84.312-2.511.937-.672.624-1.074 1.457-1.206 2.497h7.435zm11.821-6.584v2.781c1.06-2.005 2.592-3.008 4.598-3.008v4.087h-.994c-1.192 0-2.09.298-2.696.894-.605.596-.908 1.622-.908 3.079v7.889h-4.001V16.197h4.001zm12.19 15.438l-6.157-15.438h4.483l4.002 11.181 4.228-11.18h4.172l-9.82 23.156h-4.17l3.263-7.719zM11.935 18.525a2.228 2.228 0 0 0 2.227 2.09 2.228 2.228 0 0 0 2.232-2.224c0-1.228-1-2.224-2.232-2.224-.452 0-.874.135-1.226.366l-9.901-5.428a2.614 2.614 0 0 0-3.101.44 4 4 0 0 1 1.945-2.778L16.104.58a4 4 0 0 1 3.99 0l14.225 8.186a4 4 0 0 1 2.005 3.467V28.58a4 4 0 0 1-2.005 3.467l-14.225 8.185a3.997 3.997 0 0 1-1.112.435 2.59 2.59 0 0 0 .298-1.207l.115-33.904a2.27 2.27 0 0 0 1.078-1.933 2.276 2.276 0 0 0-2.278-2.273 2.273 2.273 0 1 0-1.034 4.3l-.115 33.81a.373.373 0 0 1-.56.32L2.699 31.766a2.596 2.596 0 0 1-1.294-2.244v-16.14a.373.373 0 0 1 .552-.325l9.977 5.468z"/>
</svg>
