<svg width="281" height="592" viewBox="0 0 281 592" fill="none" xmlns="http://www.w3.org/2000/svg">
<g filter="url(#filter0_dd)">
<path fill-rule="evenodd" clip-rule="evenodd" d="M47.6146 64.2287C47.6146 44.8988 63.2847 29.2288 82.6146 29.2288H198.975C218.305 29.2288 233.975 44.8988 233.975 64.2288V491.456C233.975 510.786 218.305 526.456 198.975 526.456H82.6146C63.2846 526.456 47.6146 510.786 47.6146 491.456V64.2287Z" fill="url(#paint0_linear)"/>
</g>
<g filter="url(#filter1_i)">
<path d="M264 196.743C264 198.328 262.715 199.613 261.13 199.613V140.634C262.715 140.634 264 141.919 264 143.504V196.743Z" fill="#DFE6EF"/>
</g>
<g filter="url(#filter2_i)">
<path d="M18 95.1737C18 93.5887 19.2849 92.3037 20.87 92.3037V111.554C19.2849 111.554 18 110.269 18 108.684V95.1737Z" fill="#DFE6EF"/>
</g>
<g filter="url(#filter3_i)">
<path d="M18 131.217C18 129.631 19.2849 128.347 20.87 128.347V165.618C19.2849 165.618 18 164.333 18 162.748V131.217Z" fill="#DFE6EF"/>
</g>
<g filter="url(#filter4_i)">
<path d="M18 177.908C18 176.323 19.2849 175.038 20.87 175.038V212.31C19.2849 212.31 18 211.025 18 209.44V177.908Z" fill="#DFE6EF"/>
</g>
<rect x="20.87" y="29.2288" width="239.85" height="497.227" rx="35" fill="url(#paint1_linear)"/>
<path fill-rule="evenodd" clip-rule="evenodd" d="M176.26 46.431C177.619 46.431 178.72 45.3308 178.72 43.9736C178.72 42.6164 177.619 41.5161 176.26 41.5161C174.901 41.5161 173.8 42.6164 173.8 43.9736C173.8 45.3308 174.901 46.431 176.26 46.431Z" fill="#E3E6EE"/>
<g filter="url(#filter5_i)">
<rect x="125.83" y="42.3352" width="29.93" height="3.6862" rx="1.8431" fill="#E3E6EE"/>
</g>
<path fill-rule="evenodd" clip-rule="evenodd" d="M54.64 28C35.3101 28 19.64 43.67 19.64 63V492.685C19.64 512.015 35.31 527.685 54.64 527.685H226.95C246.28 527.685 261.95 512.015 261.95 492.685V63C261.95 43.67 246.28 28 226.95 28H54.64ZM55.87 29.2287C36.5401 29.2287 20.87 44.8988 20.87 64.2287V491.456C20.87 510.786 36.54 526.456 55.87 526.456H225.72C245.05 526.456 260.72 510.786 260.72 491.456V64.2287C260.72 44.8988 245.05 29.2287 225.72 29.2287H55.87Z" fill="#DFE6EF"/>
<path fill-rule="evenodd" clip-rule="evenodd" d="M78.9157 41.4348C78.9157 39.778 77.5726 38.4348 75.9157 38.4348H52.2871C40.0764 38.4348 30.1696 48.3331 30.1696 60.5431V494.587C30.1696 506.796 40.0719 516.696 52.2871 516.696H228.844C241.054 516.696 250.961 506.797 250.961 494.587V60.5431C250.961 48.3347 241.059 38.4348 228.844 38.4348H205.215C203.558 38.4348 202.215 39.778 202.215 41.4348V43.042C202.215 50.2217 196.395 56.042 189.215 56.042H91.9157C84.736 56.042 78.9157 50.2217 78.9157 43.042V41.4348Z" fill="#2C2C2C"/>
<path fill-rule="evenodd" clip-rule="evenodd" d="M78.9157 41.4348C78.9157 39.778 77.5726 38.4348 75.9157 38.4348H52.2871C40.0764 38.4348 30.1696 48.3331 30.1696 60.5431V494.587C30.1696 506.796 40.0719 516.696 52.2871 516.696H228.844C241.054 516.696 250.961 506.797 250.961 494.587V60.5431C250.961 48.3347 241.059 38.4348 228.844 38.4348H205.215C203.558 38.4348 202.215 39.778 202.215 41.4348V43.042C202.215 50.2217 196.395 56.042 189.215 56.042H91.9157C84.736 56.042 78.9157 50.2217 78.9157 43.042V41.4348Z" fill="white"/>
<path fill-rule="evenodd" clip-rule="evenodd" d="M146.277 107.202C143.499 105.604 140.079 105.604 137.3 107.202L107.755 124.203C106.514 124.917 105.75 126.239 105.75 127.67V128.692C107.321 127.014 109.89 126.543 112 127.7L131.579 138.432C132.275 137.975 133.108 137.709 134.003 137.709C136.44 137.709 138.416 139.678 138.416 142.106C138.416 144.535 136.44 146.504 134.003 146.504C131.656 146.504 129.736 144.677 129.599 142.371L109.871 131.558C109.514 131.362 109.067 131.492 108.871 131.847C108.811 131.955 108.78 132.077 108.78 132.201V164.117C108.78 165.944 109.753 167.634 111.337 168.555L138.599 184.404C138.95 184.608 139.401 184.49 139.606 184.14C139.672 184.028 139.707 183.9 139.707 183.77L139.934 116.914C138.474 116.17 137.474 114.655 137.474 112.907C137.474 110.424 139.491 108.411 141.979 108.411C144.467 108.411 146.484 110.424 146.484 112.907C146.484 114.52 145.632 115.935 144.353 116.728L144.125 183.77C144.125 184.68 143.882 185.573 143.423 186.358C143.355 186.473 143.285 186.584 143.21 186.692C143.407 186.617 143.598 186.526 143.784 186.42L173.317 169.426C176.108 167.82 177.828 164.846 177.828 161.626V130.562C177.828 127.342 176.108 124.367 173.317 122.761L146.277 107.202Z" fill="#DBE2F0"/>
<rect x="47.5" y="266.5" width="184" height="31" stroke="#E0E3E9"/>
<rect x="47.5" y="308.5" width="184" height="31" stroke="#E0E3E9"/>
<rect x="47.5" y="350.5" width="31" height="31" stroke="#E0E3E9"/>
<rect x="103.5" y="401.5" width="81" height="81" rx="40.5" stroke="#E0E3E9"/>
<rect x="85.5" y="359.5" width="146" height="3" stroke="#E0E3E9"/>
<rect x="85.5" y="367.5" width="146" height="3" stroke="#E0E3E9"/>
<defs>
<filter id="filter0_dd" x="0.614624" y="0.22876" width="280.361" height="591.227" filterUnits="userSpaceOnUse" color-interpolation-filters="sRGB">
<feFlood flood-opacity="0" result="BackgroundImageFix"/>
<feColorMatrix in="SourceAlpha" type="matrix" values="0 0 0 0 0 0 0 0 0 0 0 0 0 0 0 0 0 0 127 0"/>
<feOffset dy="18"/>
<feGaussianBlur stdDeviation="23.5"/>
<feColorMatrix type="matrix" values="0 0 0 0 0.72549 0 0 0 0 0.745098 0 0 0 0 0.819608 0 0 0 0.341882 0"/>
<feBlend mode="normal" in2="BackgroundImageFix" result="effect1_dropShadow"/>
<feColorMatrix in="SourceAlpha" type="matrix" values="0 0 0 0 0 0 0 0 0 0 0 0 0 0 0 0 0 0 127 0"/>
<feOffset dy="11"/>
<feGaussianBlur stdDeviation="15.5"/>
<feColorMatrix type="matrix" values="0 0 0 0 0.72549 0 0 0 0 0.745098 0 0 0 0 0.819608 0 0 0 0.388389 0"/>
<feBlend mode="normal" in2="effect1_dropShadow" result="effect2_dropShadow"/>
<feBlend mode="normal" in="SourceGraphic" in2="effect2_dropShadow" result="shape"/>
</filter>
<filter id="filter1_i" x="261.13" y="140.634" width="3.87" height="58.9792" filterUnits="userSpaceOnUse" color-interpolation-filters="sRGB">
<feFlood flood-opacity="0" result="BackgroundImageFix"/>
<feBlend mode="normal" in="SourceGraphic" in2="BackgroundImageFix" result="shape"/>
<feColorMatrix in="SourceAlpha" type="matrix" values="0 0 0 0 0 0 0 0 0 0 0 0 0 0 0 0 0 0 127 0" result="hardAlpha"/>
<feOffset dx="1"/>
<feGaussianBlur stdDeviation="1"/>
<feComposite in2="hardAlpha" operator="arithmetic" k2="-1" k3="1"/>
<feColorMatrix type="matrix" values="0 0 0 0 1 0 0 0 0 1 0 0 0 0 1 0 0 0 0.140115 0"/>
<feBlend mode="normal" in2="shape" result="effect1_innerShadow"/>
</filter>
<filter id="filter2_i" x="18" y="92.3037" width="3.87" height="19.2502" filterUnits="userSpaceOnUse" color-interpolation-filters="sRGB">
<feFlood flood-opacity="0" result="BackgroundImageFix"/>
<feBlend mode="normal" in="SourceGraphic" in2="BackgroundImageFix" result="shape"/>
<feColorMatrix in="SourceAlpha" type="matrix" values="0 0 0 0 0 0 0 0 0 0 0 0 0 0 0 0 0 0 127 0" result="hardAlpha"/>
<feOffset dx="1"/>
<feGaussianBlur stdDeviation="1"/>
<feComposite in2="hardAlpha" operator="arithmetic" k2="-1" k3="1"/>
<feColorMatrix type="matrix" values="0 0 0 0 1 0 0 0 0 1 0 0 0 0 1 0 0 0 0.140115 0"/>
<feBlend mode="normal" in2="shape" result="effect1_innerShadow"/>
</filter>
<filter id="filter3_i" x="18" y="128.347" width="3.87" height="37.2716" filterUnits="userSpaceOnUse" color-interpolation-filters="sRGB">
<feFlood flood-opacity="0" result="BackgroundImageFix"/>
<feBlend mode="normal" in="SourceGraphic" in2="BackgroundImageFix" result="shape"/>
<feColorMatrix in="SourceAlpha" type="matrix" values="0 0 0 0 0 0 0 0 0 0 0 0 0 0 0 0 0 0 127 0" result="hardAlpha"/>
<feOffset dx="1"/>
<feGaussianBlur stdDeviation="1"/>
<feComposite in2="hardAlpha" operator="arithmetic" k2="-1" k3="1"/>
<feColorMatrix type="matrix" values="0 0 0 0 1 0 0 0 0 1 0 0 0 0 1 0 0 0 0.140115 0"/>
<feBlend mode="normal" in2="shape" result="effect1_innerShadow"/>
</filter>
<filter id="filter4_i" x="18" y="175.038" width="3.87" height="37.2716" filterUnits="userSpaceOnUse" color-interpolation-filters="sRGB">
<feFlood flood-opacity="0" result="BackgroundImageFix"/>
<feBlend mode="normal" in="SourceGraphic" in2="BackgroundImageFix" result="shape"/>
<feColorMatrix in="SourceAlpha" type="matrix" values="0 0 0 0 0 0 0 0 0 0 0 0 0 0 0 0 0 0 127 0" result="hardAlpha"/>
<feOffset dx="1"/>
<feGaussianBlur stdDeviation="1"/>
<feComposite in2="hardAlpha" operator="arithmetic" k2="-1" k3="1"/>
<feColorMatrix type="matrix" values="0 0 0 0 1 0 0 0 0 1 0 0 0 0 1 0 0 0 0.140115 0"/>
<feBlend mode="normal" in2="shape" result="effect1_innerShadow"/>
</filter>
<filter id="filter5_i" x="125.83" y="42.3352" width="29.93" height="3.6862" filterUnits="userSpaceOnUse" color-interpolation-filters="sRGB">
<feFlood flood-opacity="0" result="BackgroundImageFix"/>
<feBlend mode="normal" in="SourceGraphic" in2="BackgroundImageFix" result="shape"/>
<feColorMatrix in="SourceAlpha" type="matrix" values="0 0 0 0 0 0 0 0 0 0 0 0 0 0 0 0 0 0 127 0" result="hardAlpha"/>
<feOffset dy="-1"/>
<feComposite in2="hardAlpha" operator="arithmetic" k2="-1" k3="1"/>
<feColorMatrix type="matrix" values="0 0 0 0 1 0 0 0 0 1 0 0 0 0 1 0 0 0 0.0102185 0"/>
<feBlend mode="normal" in2="shape" result="effect1_innerShadow"/>
</filter>
<linearGradient id="paint0_linear" x1="52.2926" y1="54.1912" x2="52.2926" y2="526.456" gradientUnits="userSpaceOnUse">
<stop stop-color="#EDF0F6"/>
<stop offset="0.984985" stop-color="#EBEEF6"/>
</linearGradient>
<linearGradient id="paint1_linear" x1="26.8906" y1="54.1912" x2="26.8906" y2="526.456" gradientUnits="userSpaceOnUse">
<stop stop-color="#EDF0F6"/>
<stop offset="0.984985" stop-color="#EBEEF6"/>
</linearGradient>
</defs>
</svg>
